<svg xmlns="http://www.w3.org/2000/svg" width="592.8" height="265.05" viewBox="0 0 592.8 265.05">
  <path id="Path_1" data-name="Path 1" d="M159.79-157.7q5.89,1.14,8.835,3.99a8.975,8.975,0,0,1,2.945,6.65q0,6.27-3.515,9.12t-11.115,2.28q-17.1-1.33-26.695-1.8t-25.175-.665q-7.03,34.96-12.92,70.3Q90.06-54.91,87.78-37.9T84.74-10.45A10.679,10.679,0,0,1,80.18-2,17.035,17.035,0,0,1,70.11.95q-6.27,0-9.69-3.04A10.166,10.166,0,0,1,57-10.07a129.068,129.068,0,0,1,1.425-15.1Q59.85-35.72,61.75-47.31q2.09-11.59,3.23-20.14,2.09-14.44,4.75-28.69t5.32-26.98q.57-2.85,1.33-6.555t1.71-8.265q-18.62.57-29.26,3.04t-15.1,6.935a15.559,15.559,0,0,0-4.465,11.5,22.436,22.436,0,0,0,3.8,12.35,5.651,5.651,0,0,1,.76,2.85q0,3.61-4.275,6.745A14.766,14.766,0,0,1,20.71-91.39a7.605,7.605,0,0,1-5.32-1.9A23.669,23.669,0,0,1,9.12-102.5,35.339,35.339,0,0,1,6.65-116.09q0-16.15,10.545-25.935t32.11-14.345q21.565-4.56,55.385-4.56,20.9,0,33.345.76A184.011,184.011,0,0,1,159.79-157.7Zm50.16,99.37a4.145,4.145,0,0,1,3.8,2.47,13.141,13.141,0,0,1,1.33,6.27q0,9.12-5.51,10.83a86.5,86.5,0,0,1-25.08,4.56q-3.61,15.96-14.25,25.555T146.11.95q-11.4,0-19.475-5.51A35,35,0,0,1,114.38-19.19a46.853,46.853,0,0,1-4.18-19.76,58.024,58.024,0,0,1,5.51-25.745,43.286,43.286,0,0,1,15.2-17.67,38.279,38.279,0,0,1,21.47-6.365q14.44,0,23.275,9.975t10.355,24.6a115.159,115.159,0,0,0,21.28-3.8A11.165,11.165,0,0,1,209.95-58.33ZM147.63-19.19a13.779,13.779,0,0,0,10.545-4.94q4.465-4.94,5.985-14.25a26.23,26.23,0,0,1-9.025-10.45A30.936,30.936,0,0,1,152-62.51a32.925,32.925,0,0,1,.57-6.08h-.95q-7.6,0-12.635,7.315T133.95-40.66q0,10.45,4.085,15.96T147.63-19.19ZM236.74.95a185.269,185.269,0,0,1-24.89-1.9q-7.6-.95-10.45-3.99t-2.47-9.88a454.439,454.439,0,0,1,6.27-46.455q4.94-27.645,11.97-53.3a9.873,9.873,0,0,1,5.32-6.65,24.464,24.464,0,0,1,10.45-1.9q11.59,0,11.59,6.46a19.523,19.523,0,0,1-1.14,6.08q-4.94,15.2-9.88,40.755a488.4,488.4,0,0,0-7.03,48.735q5.7.57,12.92.57,33.25,0,49.685-20.14T305.52-94.43q0-22.61-12.92-34.96t-36.48-12.35a98.707,98.707,0,0,0-30.115,4.75,110.45,110.45,0,0,0-26.885,12.54,9.168,9.168,0,0,1-5.32,1.71,5.928,5.928,0,0,1-5.13-2.755,11.593,11.593,0,0,1-1.9-6.745,16.311,16.311,0,0,1,1.52-7.505,15.239,15.239,0,0,1,5.13-5.415,98.984,98.984,0,0,1,30.78-13.585,133.394,133.394,0,0,1,34.01-4.655q23.18,0,40.09,8.075a58.653,58.653,0,0,1,26.03,23.655q9.12,15.58,9.12,37.62,0,28.69-11.4,50.065A79.55,79.55,0,0,1,288.8-10.83Q266.95.95,236.74.95Zm130.15,0q-11.21,0-19.1-5.6A34.808,34.808,0,0,1,335.92-19.38a48.284,48.284,0,0,1-3.99-19.57,58.882,58.882,0,0,1,5.415-25.745,43.716,43.716,0,0,1,14.725-17.67,36.183,36.183,0,0,1,20.9-6.365q11.21,0,19.19,5.605A34.551,34.551,0,0,1,404.13-68.4a48.284,48.284,0,0,1,3.99,19.57,58.024,58.024,0,0,1-5.51,25.745A44.119,44.119,0,0,1,387.7-5.415,36.317,36.317,0,0,1,366.89.95Zm2.09-20.52q6.46,0,10.925-7.03t4.465-20.52q0-10.45-3.8-15.77t-9.12-5.32q-6.84,0-11.3,6.935T355.68-40.66q0,10.83,3.8,15.96T368.98-19.57Zm52.25-27.17a8.378,8.378,0,0,1-7.315-2.66q-2.755-3.04-2.755-8.55,0-5.13,2.565-7.6t7.505-2.85l38.95-3.8q4.75-.38,7.315,2.375t2.565,8.075q0,10.26-9.88,11.21Zm125.4,4.37a4.39,4.39,0,0,1,3.9,2.28,11.785,11.785,0,0,1,1.425,6.27q0,7.6-3.61,11.78A81.858,81.858,0,0,1,530.575-5.51,38.055,38.055,0,0,1,508.82.95q-16.72,0-24.8-15.2T475.95-53.58q0-23.18,5.985-52.82t17.67-50.92Q511.29-178.6,527.44-178.6q9.12,0,14.345,8.455t5.225,24.225q0,22.61-12.54,52.44a290.413,290.413,0,0,1-34.01,59.09q1.33,7.79,4.37,11.115a10.3,10.3,0,0,0,7.98,3.325,22.018,22.018,0,0,0,13.68-4.465q5.89-4.465,15.01-15.3A6.669,6.669,0,0,1,546.63-42.37ZM523.26-159.79q-4.37,0-9.88,15.77t-9.69,39.14a283.333,283.333,0,0,0-4.56,44.84,244.862,244.862,0,0,0,21.47-44.555q7.98-22.325,7.98-40.755Q528.58-159.79,523.26-159.79Zm68.4,71.25q4.37,0,6.08,1.14a4.226,4.226,0,0,1,1.71,3.8q0,4.56-4.94,32.49-4.37,26.79-5.13,31.73Q582.35,29.45,570,57.95t-32.87,28.5q-9.69,0-15.77-5.985T515.28,64.79a45.194,45.194,0,0,1,4.085-18.24q4.085-9.31,15.2-21.375T566.01-2.47l.57-4.37q1.33-7.03,3.04-20.14-3.8,13.68-10.64,20.805T544.54.95q-8.55,0-13.965-7.885T525.16-26.6a165.909,165.909,0,0,1,1.9-26.125A164,164,0,0,1,533.33-77.9q1.9-5.7,5.32-8.17t10.83-2.47q4.18,0,5.795,1.33a4.869,4.869,0,0,1,1.615,3.99q0,1.52-2.09,10.26-1.9,7.03-3.04,12.73-1.52,7.79-2.66,14.915a76.938,76.938,0,0,0-1.14,11.685q0,7.22,3.99,7.22,2.85,0,7.125-5.7T568.2-49.4a231.06,231.06,0,0,0,9.4-28.5q1.52-5.7,4.655-8.17T591.66-88.54ZM539.22,68.02q4.75,0,10.64-11.02t11.78-36.67q-14.63,12.35-21.185,22.515T533.9,60.61a10.335,10.335,0,0,0,1.235,5.32A4.37,4.37,0,0,0,539.22,68.02Z" transform="translate(-6.65 178.6)" fill="#fff"/>
</svg>
